WixMadeforText_It.ufo
<glyph name="parenright" format="2">
	<unicode hex="0029"/>
	<advance width="326"/>
	<outline>
		<contour>
			<point x="36" y="-129" type="line"/>
			<point x="185" y="20"/>
			<point x="281" y="233"/>
			<point x="281" y="452" type="curve" smooth="yes"/>
			<point x="281" y="550"/>
			<point x="261" y="642"/>
			<point x="214" y="731" type="curve"/>
			<point x="143" y="731" type="line"/>
			<point x="185" y="634"/>
			<point x="205" y="544"/>
			<point x="205" y="444" type="curve" smooth="yes"/>
			<point x="205" y="231"/>
			<point x="108" y="35"/>
			<point x="-41" y="-129" type="curve"/>
		</contour>
	</outline>
</glyph>
<glyph name="plus" format="2">
	<unicode hex="002B"/>
	<advance width="632"/>
	<outline>
		<contour>
			<point x="262" y="162" type="line"/>
			<point x="326" y="162" type="line"/>
			<point x="361" y="325" type="line"/>
			<point x="511" y="325" type="line"/>
			<point x="524" y="389" type="line"/>
			<point x="374" y="389" type="line"/>
			<point x="409" y="552" type="line"/>
			<point x="345" y="552" type="line"/>
			<point x="310" y="389" type="line"/>
			<point x="160" y="389" type="line"/>
			<point x="147" y="325" type="line"/>
			<point x="297" y="325" type="line"/>
		</contour>
	</outline>
</glyph>
<glyph name="period" format="2">
	<unicode hex="002E"/>
	<advance width="229"/>
	<outline>
		<contour>
			<point x="16" y="37" type="curve" smooth="yes"/>
			<point x="16" y="8"/>
			<point x="37" y="-12"/>
			<point x="66" y="-12" type="curve" smooth="yes"/>
			<point x="105" y="-12"/>
			<point x="133" y="16"/>
			<point x="133" y="57" type="curve" smooth="yes"/>
			<point x="133" y="86"/>
			<point x="112" y="106"/>
			<point x="83" y="106" type="curve" smooth="yes"/>
			<point x="44" y="106"/>
			<point x="16" y="78"/>
		</contour>
	</outline>
</glyph>
<glyph name="one" format="2">
	<unicode hex="0031"/>
	<advance width="476"/>
	<outline>
		<contour>
			<point x="201" y="0" type="line"/>
			<point x="281" y="0" type="line"/>
			<point x="433" y="715" type="line"/>
			<point x="356" y="715" type="line"/>
			<point x="155" y="571" type="line"/>
			<point x="136" y="481" type="line"/>
			<point x="334" y="624" type="line"/>
		</contour>
	</outline>
</glyph>
<glyph name="nine" format="2">
	<unicode hex="0039"/>
	<advance width="613"/>
	<outline>
		<contour>
			<point x="401" y="731" type="curve" smooth="yes"/>
			<point x="245" y="731"/>
			<point x="117" y="604"/>
			<point x="117" y="447" type="curve" smooth="yes"/>
			<point x="117" y="329"/>
			<point x="198" y="245"/>
			<point x="312" y="245" type="curve" smooth="yes"/>
			<point x="396" y="245"/>
			<point x="466" y="286"/>
			<point x="505" y="358" type="curve"/>
			<point x="500" y="369" type="line"/>
			<point x="439" y="251"/>
			<point x="319" y="138"/>
			<point x="109" y="0" type="curve"/>
			<point x="225" y="0" type="line"/>
			<point x="479" y="165"/>
			<point x="610" y="341"/>
			<point x="610" y="517" type="curve" smooth="yes"/>
			<point x="610" y="647"/>
			<point x="528" y="731"/>
		</contour>
		<contour>
			<point x="397" y="664" type="curve" smooth="yes"/>
			<point x="480" y="664"/>
			<point x="534" y="606"/>
			<point x="534" y="518" type="curve" smooth="yes"/>
			<point x="534" y="405"/>
			<point x="443" y="311"/>
			<point x="334" y="311" type="curve" smooth="yes"/>
			<point x="251" y="311"/>
			<point x="197" y="368"/>
			<point x="197" y="455" type="curve" smooth="yes"/>
			<point x="197" y="568"/>
			<point x="289" y="664"/>
		</contour>
	</outline>
</glyph>
<glyph name="at" format="2">
	<unicode hex="0040"/>
	<advance width="1012"/>
	<outline>
		<contour>
			<point x="655" y="-52" type="line"/>
			<point x="595" y="-101"/>
			<point x="518" y="-128"/>
			<point x="435" y="-128" type="curve" smooth="yes"/>
			<point x="264" y="-128"/>
			<point x="157" y="-12"/>
			<point x="157" y="175" type="curve" smooth="yes"/>
			<point x="157" y="444"/>
			<point x="348" y="664"/>
			<point x="581" y="664" type="curve" smooth="yes"/>
			<point x="763" y="664"/>
			<point x="876" y="552"/>
			<point x="876" y="371" type="curve" smooth="yes"/>
			<point x="876" y="212"/>
			<point x="821" y="104"/>
			<point x="740" y="104" type="curve" smooth="yes"/>
			<point x="701" y="104"/>
			<point x="679" y="127"/>
			<point x="679" y="168" type="curve" smooth="yes"/>
			<point x="679" y="186"/>
			<point x="681" y="200"/>
			<point x="684" y="215" type="curve" smooth="yes"/>
			<point x="736" y="464" type="line"/>
			<point x="671" y="464" type="line"/>
			<point x="646" y="340" type="line"/>
			<point x="663" y="345" type="line"/>
			<point x="655" y="429"/>
			<point x="606" y="478"/>
			<point x="528" y="478" type="curve" smooth="yes"/>
			<point x="405" y="478"/>
			<point x="300" y="360"/>
			<point x="300" y="222" type="curve" smooth="yes"/>
			<point x="300" y="112"/>
			<point x="360" y="43"/>
			<point x="457" y="43" type="curve" smooth="yes"/>
			<point x="552" y="43"/>
			<point x="621" y="117"/>
			<point x="660" y="260" type="curve"/>
			<point x="633" y="291" type="line"/>
			<point x="599" y="174"/>
			<point x="538" y="104"/>
			<point x="468" y="104" type="curve" smooth="yes"/>
			<point x="404" y="104"/>
			<point x="368" y="146"/>
			<point x="368" y="222" type="curve" smooth="yes"/>
			<point x="368" y="329"/>
			<point x="441" y="417"/>
			<point x="528" y="417" type="curve" smooth="yes"/>
			<point x="591" y="417"/>
			<point x="627" y="372"/>
			<point x="627" y="294" type="curve" smooth="yes"/>
			<point x="627" y="259"/>
			<point x="625" y="238"/>
			<point x="619" y="214" type="curve" smooth="yes"/>
			<point x="612" y="187"/>
			<point x="610" y="173"/>
			<point x="610" y="157" type="curve" smooth="yes"/>
			<point x="610" y="87"/>
			<point x="657" y="43"/>
			<point x="734" y="43" type="curve" smooth="yes"/>
			<point x="860" y="43"/>
			<point x="950" y="181"/>
			<point x="950" y="373" type="curve" smooth="yes"/>
			<point x="950" y="588"/>
			<point x="808" y="731"/>
			<point x="594" y="731" type="curve" smooth="yes"/>
			<point x="305" y="731"/>
			<point x="80" y="481"/>
			<point x="80" y="160" type="curve" smooth="yes"/>
			<point x="80" y="-47"/>
			<point x="224" y="-194"/>
			<point x="425" y="-194" type="curve" smooth="yes"/>
			<point x="522" y="-194"/>
			<point x="620" y="-162"/>
			<point x="692" y="-106" type="curve"/>
		</contour>
	</outline>
	<guideline y="-194"/>
	<guideline y="43"/>
	<guideline y="104"/>
	<guideline y="417"/>
	<guideline y="478"/>
</glyph>
<glyph name="E" format="2">
	<unicode hex="0045"/>
	<advance width="595"/>
	<outline>
		<contour>
			<point x="54" y="0" type="line"/>
			<point x="506" y="0" type="line"/>
			<point x="521" y="70" type="line"/>
			<point x="149" y="70" type="line"/>
			<point x="270" y="645" type="line"/>
			<point x="629" y="645" type="line"/>
			<point x="644" y="715" type="line"/>
			<point x="205" y="715" type="line"/>
		</contour>
		<contour>
			<point x="194" y="331" type="line"/>
			<point x="544" y="331" type="line"/>
			<point x="559" y="401" type="line"/>
			<point x="209" y="401" type="line"/>
		</contour>
	</outline>
	<anchor name="ogonek.UC" x="415" y="-30"/>
	<anchor name="top.UC" x="433" y="750"/>
</glyph>
<glyph name="K" format="2">
	<unicode hex="004B"/>
	<advance width="672"/>
	<outline>
		<contour>
			<point x="54" y="0" type="line"/>
			<point x="134" y="0" type="line"/>
			<point x="285" y="715" type="line"/>
			<point x="205" y="715" type="line"/>
		</contour>
		<contour>
			<point x="485" y="0" type="line"/>
			<point x="590" y="0" type="line"/>
			<point x="280" y="393" type="line"/>
			<point x="290" y="363" type="line"/>
			<point x="712" y="715" type="line"/>
			<point x="605" y="715" type="line"/>
			<point x="205" y="380" type="line"/>
			<point x="193" y="380" type="line"/>
		</contour>
	</outline>
	<anchor name="bottom.UC" x="284" y="-50"/>
	<anchor name="top.UC" x="423" y="750"/>
</glyph>
<glyph name="M" format="2">
	<unicode hex="004D"/>
	<advance width="905"/>
	<outline>
		<contour>
			<point x="53" y="0" type="line"/>
			<point x="131" y="0" type="line"/>
			<point x="272" y="662" type="line"/>
			<point x="244" y="662" type="line"/>
			<point x="383" y="61" type="line"/>
			<point x="442" y="61" type="line"/>
			<point x="842" y="662" type="line"/>
			<point x="809" y="662" type="line"/>
			<point x="669" y="0" type="line"/>
			<point x="747" y="0" type="line"/>
			<point x="899" y="715" type="line"/>
			<point x="797" y="715" type="line"/>
			<point x="397" y="110" type="line"/>
			<point x="444" y="110" type="line"/>
			<point x="307" y="715" type="line"/>
			<point x="205" y="715" type="line"/>
		</contour>
	</outline>
	<guideline x="53" y="0" angle="102"/>
	<guideline x="131" y="0" angle="102"/>
	<guideline x="669" y="0" angle="102"/>
</glyph>
<glyph name="N" format="2">
	<unicode hex="004E"/>
	<advance width="750"/>
	<outline>
		<contour>
			<point x="54" y="0" type="line"/>
			<point x="131" y="0" type="line"/>
			<point x="264" y="626" type="line"/>
			<point x="249" y="626" type="line"/>
			<point x="506" y="0" type="line"/>
			<point x="592" y="0" type="line"/>
			<point x="744" y="715" type="line"/>
			<point x="667" y="715" type="line"/>
			<point x="533" y="86" type="line"/>
			<point x="549" y="86" type="line"/>
			<point x="291" y="715" type="line"/>
			<point x="206" y="715" type="line"/>
		</contour>
	</outline>
	<anchor name="bottom.UC" x="305" y="-50"/>
	<anchor name="top.UC" x="466" y="750"/>
	<guideline x="54" y="0" angle="102"/>
	<guideline x="131" y="0" angle="102"/>
	<guideline x="515" y="0" angle="102"/>
	<guideline x="592" y="0" angle="102"/>
</glyph>
<glyph name="R" format="2">
	<unicode hex="0052"/>
	<advance width="683"/>
	<outline>
		<contour>
			<point x="500" y="0" type="line"/>
			<point x="592" y="0" type="line"/>
			<point x="400" y="333" type="line"/>
			<point x="313" y="333" type="line"/>
		</contour>
		<contour>
			<point x="54" y="0" type="line"/>
			<point x="134" y="0" type="line"/>
			<point x="270" y="645" type="line"/>
			<point x="435" y="645" type="line" smooth="yes"/>
			<point x="511" y="645"/>
			<point x="554" y="608"/>
			<point x="554" y="541" type="curve" smooth="yes"/>
			<point x="554" y="443"/>
			<point x="487" y="383"/>
			<point x="379" y="383" type="curve" smooth="yes"/>
			<point x="204" y="383" type="line"/>
			<point x="189" y="313" type="line"/>
			<point x="366" y="313" type="line" smooth="yes"/>
			<point x="530" y="313"/>
			<point x="636" y="404"/>
			<point x="636" y="544" type="curve" smooth="yes"/>
			<point x="636" y="649"/>
			<point x="563" y="715"/>
			<point x="446" y="715" type="curve" smooth="yes"/>
			<point x="205" y="715" type="line"/>
		</contour>
	</outline>
	<anchor name="top.UC" x="374" y="750"/>
</glyph>
<glyph name="T" format="2">
	<unicode hex="0054"/>
	<advance width="590"/>
	<outline>
		<contour>
			<point x="204" y="0" type="line"/>
			<point x="284" y="0" type="line"/>
			<point x="422" y="654" type="line"/>
			<point x="342" y="654" type="line"/>
		</contour>
		<contour>
			<point x="123" y="644" type="line"/>
			<point x="637" y="644" type="line"/>
			<point x="652" y="715" type="line"/>
			<point x="138" y="715" type="line"/>
		</contour>
	</outline>
	<anchor name="bottom.UC" x="222" y="-50"/>
	<anchor name="top.UC" x="394" y="750"/>
</glyph>
<glyph name="W" format="2">
	<unicode hex="0057"/>
	<advance width="994"/>
	<outline>
		<contour>
			<point x="201" y="0" type="line"/>
			<point x="293" y="0" type="line"/>
			<point x="585" y="621" type="line"/>
			<point x="576" y="621" type="line"/>
			<point x="601" y="0" type="line"/>
			<point x="693" y="0" type="line"/>
			<point x="1047" y="715" type="line"/>
			<point x="962" y="715" type="line"/>
			<point x="639" y="44" type="line"/>
			<point x="668" y="44" type="line"/>
			<point x="641" y="715" type="line"/>
			<point x="555" y="715" type="line"/>
			<point x="239" y="44" type="line"/>
			<point x="268" y="44" type="line"/>
			<point x="228" y="715" type="line"/>
			<point x="146" y="715" type="line"/>
		</contour>
	</outline>
	<anchor name="top.UC" x="595" y="750"/>
</glyph>
<glyph name="X" format="2">
	<unicode hex="0058"/>
	<advance width="680"/>
	<outline>
		<contour>
			<point x="-11" y="0" type="line"/>
			<point x="87" y="0" type="line"/>
			<point x="380" y="343" type="line"/>
			<point x="341" y="343" type="line"/>
			<point x="497" y="0" type="line"/>
			<point x="587" y="0" type="line"/>
			<point x="402" y="392" type="line"/>
			<point x="401" y="350" type="line"/>
			<point x="715" y="715" type="line"/>
			<point x="619" y="715" type="line"/>
			<point x="353" y="397" type="line"/>
			<point x="394" y="397" type="line"/>
			<point x="253" y="715" type="line"/>
			<point x="165" y="715" type="line"/>
			<point x="332" y="350" type="line"/>
			<point x="331" y="392" type="line"/>
		</contour>
	</outline>
</glyph>
<glyph name="d" format="2">
	<unicode hex="0064"/>
	<advance width="606"/>
	<outline>
		<contour>
			<point x="402" y="0" type="line"/>
			<point x="479" y="0" type="line"/>
			<point x="632" y="720" type="line"/>
			<point x="556" y="720" type="line"/>
			<point x="473" y="331" type="line"/>
			<point x="493" y="348" type="line"/>
			<point x="482" y="449"/>
			<point x="423" y="508"/>
			<point x="324" y="508" type="curve" smooth="yes"/>
			<point x="167" y="508"/>
			<point x="47" y="362"/>
			<point x="47" y="197" type="curve" smooth="yes"/>
			<point x="47" y="67"/>
			<point x="117" y="-16"/>
			<point x="235" y="-16" type="curve" smooth="yes"/>
			<point x="360" y="-16"/>
			<point x="435" y="82"/>
			<point x="480" y="245" type="curve"/>
			<point x="459" y="283" type="line"/>
			<point x="418" y="140"/>
			<point x="345" y="51"/>
			<point x="251" y="51" type="curve" smooth="yes"/>
			<point x="175" y="51"/>
			<point x="128" y="105"/>
			<point x="128" y="198" type="curve" smooth="yes"/>
			<point x="128" y="333"/>
			<point x="217" y="441"/>
			<point x="325" y="441" type="curve" smooth="yes"/>
			<point x="403" y="441"/>
			<point x="452" y="384"/>
			<point x="452" y="286" type="curve" smooth="yes"/>
			<point x="452" y="252"/>
			<point x="449" y="224"/>
			<point x="442" y="190" type="curve" smooth="yes"/>
		</contour>
	</outline>
	<anchor name="top_right" x="709" y="540"/>
</glyph>
<glyph name="i" format="2">
	<unicode hex="0069"/>
	<advance width="239"/>
	<outline>
		<contour>
			<point x="33" y="0" type="line"/>
			<point x="110" y="0" type="line"/>
			<point x="214" y="492" type="line"/>
			<point x="137" y="492" type="line"/>
		</contour>
		<contour>
			<point x="158" y="668" type="curve" smooth="yes"/>
			<point x="158" y="641"/>
			<point x="176" y="623"/>
			<point x="205" y="623" type="curve" smooth="yes"/>
			<point x="242" y="623"/>
			<point x="270" y="652"/>
			<point x="270" y="688" type="curve" smooth="yes"/>
			<point x="270" y="715"/>
			<point x="252" y="733"/>
			<point x="223" y="733" type="curve" smooth="yes"/>
			<point x="187" y="733"/>
			<point x="158" y="705"/>
		</contour>
	</outline>
	<anchor name="ogonek.LC" x="23" y="-30"/>
</glyph>
<glyph name="p" format="2">
	<unicode hex="0070"/>
	<advance width="617"/>
	<outline>
		<contour>
			<point x="-8" y="-194" type="line"/>
			<point x="69" y="-194" type="line"/>
			<point x="138" y="131" type="line" smooth="yes"/>
			<point x="181" y="333"/>
			<point x="261" y="441"/>
			<point x="364" y="441" type="curve" smooth="yes"/>
			<point x="444" y="441"/>
			<point x="489" y="385"/>
			<point x="489" y="296" type="curve" smooth="yes"/>
			<point x="489" y="159"/>
			<point x="401" y="51"/>
			<point x="290" y="51" type="curve" smooth="yes"/>
			<point x="211" y="51"/>
			<point x="140" y="104"/>
			<point x="130" y="176" type="curve"/>
			<point x="98" y="140" type="line"/>
			<point x="110" y="47"/>
			<point x="190" y="-16"/>
			<point x="293" y="-16" type="curve" smooth="yes"/>
			<point x="448" y="-16"/>
			<point x="570" y="127"/>
			<point x="570" y="297" type="curve" smooth="yes"/>
			<point x="570" y="428"/>
			<point x="496" y="508"/>
			<point x="384" y="508" type="curve" smooth="yes"/>
			<point x="293" y="508"/>
			<point x="221" y="456"/>
			<point x="173" y="352" type="curve"/>
			<point x="185" y="356" type="line"/>
			<point x="214" y="492" type="line"/>
			<point x="138" y="492" type="line"/>
		</contour>
	</outline>
	<guideline y="51"/>
	<guideline y="441"/>
	<guideline x="33" y="0" angle="102"/>
	<guideline x="110" y="0" angle="102"/>
</glyph>
<glyph name="s" format="2">
	<unicode hex="0073"/>
	<advance width="477"/>
	<outline>
		<contour>
			<point x="-8" y="90" type="line"/>
			<point x="37" y="24"/>
			<point x="119" y="-16"/>
			<point x="209" y="-16" type="curve" smooth="yes"/>
			<point x="330" y="-16"/>
			<point x="416" y="53"/>
			<point x="416" y="150" type="curve" smooth="yes"/>
			<point x="416" y="220"/>
			<point x="364" y="262"/>
			<point x="244" y="290" type="curve" smooth="yes"/>
			<point x="177" y="306"/>
			<point x="149" y="327"/>
			<point x="149" y="361" type="curve" smooth="yes"/>
			<point x="149" y="411"/>
			<point x="195" y="443"/>
			<point x="266" y="443" type="curve" smooth="yes"/>
			<point x="325" y="443"/>
			<point x="368" y="419"/>
			<point x="403" y="365" type="curve"/>
			<point x="462" y="407" type="line"/>
			<point x="417" y="472"/>
			<point x="348" y="508"/>
			<point x="268" y="508" type="curve" smooth="yes"/>
			<point x="154" y="508"/>
			<point x="70" y="442"/>
			<point x="70" y="353" type="curve" smooth="yes"/>
			<point x="70" y="288"/>
			<point x="119" y="246"/>
			<point x="224" y="221" type="curve" smooth="yes"/>
			<point x="304" y="202"/>
			<point x="336" y="180"/>
			<point x="336" y="141" type="curve" smooth="yes"/>
			<point x="336" y="85"/>
			<point x="287" y="49"/>
			<point x="210" y="49" type="curve" smooth="yes"/>
			<point x="143" y="49"/>
			<point x="85" y="81"/>
			<point x="52" y="135" type="curve"/>
		</contour>
	</outline>
	<anchor name="top.LC" x="283" y="544"/>
	<anchor name="bottom.LC" x="198" y="-50"/>
	<guideline y="49"/>
	<guideline y="443"/>
</glyph>
<glyph name="v" format="2">
	<unicode hex="0076"/>
	<advance width="534"/>
	<outline>
		<contour>
			<point x="173" y="0" type="line"/>
			<point x="251" y="0" type="line"/>
			<point x="549" y="492" type="line"/>
			<point x="467" y="492" type="line"/>
			<point x="204" y="42" type="line"/>
			<point x="235" y="42" type="line"/>
			<point x="165" y="492" type="line"/>
			<point x="85" y="492" type="line"/>
		</contour>
	</outline>
</glyph>
<glyph name="y" format="2">
	<unicode hex="0079"/>
	<advance width="536"/>
	<outline>
		<contour>
			<point x="-18" y="-194" type="line"/>
			<point x="36" y="-194" type="line" smooth="yes"/>
			<point x="115" y="-194"/>
			<point x="150" y="-167"/>
			<point x="190" y="-102" type="curve" smooth="yes"/>
			<point x="550" y="492" type="line"/>
			<point x="468" y="492" type="line"/>
			<point x="205" y="42" type="line"/>
			<point x="236" y="42" type="line"/>
			<point x="166" y="492" type="line"/>
			<point x="86" y="492" type="line"/>
			<point x="176" y="-22" type="line"/>
			<point x="185" y="19" type="line"/>
			<point x="141" y="-59" type="line" smooth="yes"/>
			<point x="112" y="-111"/>
			<point x="86" y="-128"/>
			<point x="44" y="-128" type="curve" smooth="yes"/>
			<point x="-4" y="-128" type="line"/>
		</contour>
	</outline>
	<anchor name="top.LC" x="319" y="544"/>
</glyph>
<glyph name="bar" format="2">
	<unicode hex="007C"/>
	<advance width="246"/>
	<outline>
		<contour>
			<point x="7" y="-129" type="line"/>
			<point x="81" y="-129" type="line"/>
			<point x="264" y="736" type="line"/>
			<point x="189" y="736" type="line"/>
		</contour>
	</outline>
</glyph>
<glyph name="section" format="2">
	<unicode hex="00A7"/>
	<advance width="533"/>
	<outline>
		<contour>
			<point x="13" y="-38" type="line"/>
			<point x="50" y="-94"/>
			<point x="121" y="-129"/>
			<point x="200" y="-129" type="curve" smooth="yes"/>
			<point x="320" y="-129"/>
			<point x="411" y="-49"/>
			<point x="411" y="57" type="curve" smooth="yes"/>
			<point x="411" y="102"/>
			<point x="398" y="131"/>
			<point x="364" y="162" type="curve"/>
			<point x="446" y="199"/>
			<point x="493" y="257"/>
			<point x="493" y="322" type="curve" smooth="yes"/>
			<point x="493" y="387"/>
			<point x="444" y="431"/>
			<point x="335" y="466" type="curve" smooth="yes"/>
			<point x="269" y="487"/>
			<point x="243" y="514"/>
			<point x="243" y="560" type="curve" smooth="yes"/>
			<point x="243" y="626"/>
			<point x="292" y="669"/>
			<point x="367" y="669" type="curve" smooth="yes"/>
			<point x="420" y="669"/>
			<point x="469" y="641"/>
			<point x="497" y="597" type="curve"/>
			<point x="546" y="643" type="line"/>
			<point x="509" y="701"/>
			<point x="450" y="731"/>
			<point x="372" y="731" type="curve" smooth="yes"/>
			<point x="255" y="731"/>
			<point x="171" y="655"/>
			<point x="171" y="549" type="curve" smooth="yes"/>
			<point x="171" y="511"/>
			<point x="187" y="477"/>
			<point x="218" y="449" type="curve"/>
			<point x="131" y="403"/>
			<point x="90" y="353"/>
			<point x="90" y="289" type="curve" smooth="yes"/>
			<point x="90" y="223"/>
			<point x="139" y="179"/>
			<point x="249" y="145" type="curve" smooth="yes"/>
			<point x="314" y="125"/>
			<point x="340" y="97"/>
			<point x="340" y="49" type="curve" smooth="yes"/>
			<point x="340" y="-18"/>
			<point x="283" y="-65"/>
			<point x="202" y="-65" type="curve" smooth="yes"/>
			<point x="143" y="-65"/>
			<point x="92" y="-38"/>
			<point x="62" y="9" type="curve"/>
		</contour>
		<contour>
			<point x="268" y="210" type="line" smooth="yes"/>
			<point x="193" y="234"/>
			<point x="161" y="259"/>
			<point x="161" y="297" type="curve" smooth="yes"/>
			<point x="161" y="346"/>
			<point x="203" y="393"/>
			<point x="269" y="416" type="curve"/>
			<point x="315" y="401" type="line" smooth="yes"/>
			<point x="389" y="378"/>
			<point x="422" y="351"/>
			<point x="422" y="314" type="curve" smooth="yes"/>
			<point x="422" y="265"/>
			<point x="380" y="219"/>
			<point x="314" y="195" type="curve" smooth="yes"/>
		</contour>
	</outline>
	<guideline y="-129"/>
	<guideline y="-8"/>
	<guideline y="195"/>
	<guideline y="669"/>
</glyph>
<glyph name="logicalnot" format="2">
	<unicode hex="00AC"/>
	<advance width="631"/>
	<outline>
		<contour>
			<point x="147" y="325" type="line"/>
			<point x="455" y="325" type="line"/>
			<point x="423" y="175" type="line"/>
			<point x="487" y="175" type="line"/>
			<point x="532" y="389" type="line"/>
			<point x="160" y="389" type="line"/>
		</contour>
	</outline>
</glyph>
<glyph name="registered" format="2">
	<unicode hex="00AE"/>
	<advance width="514"/>
	<outline>
		<contour>
			<point x="227" y="383" type="line"/>
			<point x="264" y="383" type="line"/>
			<point x="264" y="570" type="line"/>
			<point x="316" y="570" type="line" smooth="yes"/>
			<point x="340" y="570"/>
			<point x="357" y="556"/>
			<point x="357" y="536" type="curve" smooth="yes"/>
			<point x="357" y="517"/>
			<point x="340" y="503"/>
			<point x="316" y="503" type="curve" smooth="yes"/>
			<point x="260" y="503" type="line"/>
			<point x="260" y="470" type="line"/>
			<point x="316" y="470" type="line" smooth="yes"/>
			<point x="362" y="470"/>
			<point x="394" y="497"/>
			<point x="394" y="536" type="curve" smooth="yes"/>
			<point x="394" y="575"/>
			<point x="362" y="603"/>
			<point x="316" y="603" type="curve" smooth="yes"/>
			<point x="227" y="603" type="line"/>
		</contour>
		<contour>
			<point x="367" y="383" type="line"/>
			<point x="413" y="383" type="line"/>
			<point x="333" y="475" type="line"/>
			<point x="289" y="475" type="line"/>
		</contour>
		<contour>
			<point x="307" y="316" type="curve" smooth="yes"/>
			<point x="216" y="316"/>
			<point x="146" y="387"/>
			<point x="146" y="488" type="curve" smooth="yes"/>
			<point x="146" y="589"/>
			<point x="216" y="660"/>
			<point x="307" y="660" type="curve" smooth="yes"/>
			<point x="398" y="660"/>
			<point x="468" y="589"/>
			<point x="468" y="488" type="curve" smooth="yes"/>
			<point x="468" y="387"/>
			<point x="398" y="316"/>
		</contour>
		<contour>
			<point x="307" y="265" type="curve" smooth="yes"/>
			<point x="426" y="265"/>
			<point x="521" y="364"/>
			<point x="521" y="488" type="curve" smooth="yes"/>
			<point x="521" y="612"/>
			<point x="426" y="711"/>
			<point x="307" y="711" type="curve" smooth="yes"/>
			<point x="188" y="711"/>
			<point x="93" y="612"/>
			<point x="93" y="488" type="curve" smooth="yes"/>
			<point x="93" y="364"/>
			<point x="188" y="265"/>
		</contour>
	</outline>
</glyph>
<glyph name="ordmasculine" format="2">
	<unicode hex="00BA"/>
	<advance width="457"/>
	<outline>
		<contour>
			<point x="257" y="305" type="curve" smooth="yes"/>
			<point x="387" y="305"/>
			<point x="478" y="424"/>
			<point x="478" y="545" type="curve" smooth="yes"/>
			<point x="478" y="660"/>
			<point x="399" y="715"/>
			<point x="310" y="715" type="curve" smooth="yes"/>
			<point x="180" y="715"/>
			<point x="89" y="596"/>
			<point x="89" y="475" type="curve" smooth="yes"/>
			<point x="89" y="360"/>
			<point x="168" y="305"/>
		</contour>
		<contour>
			<point x="258" y="362" type="curve" smooth="yes"/>
			<point x="194" y="362"/>
			<point x="161" y="411"/>
			<point x="161" y="476" type="curve" smooth="yes"/>
			<point x="161" y="565"/>
			<point x="220" y="658"/>
			<point x="309" y="658" type="curve" smooth="yes"/>
			<point x="373" y="658"/>
			<point x="406" y="609"/>
			<point x="406" y="544" type="curve" smooth="yes"/>
			<point x="406" y="455"/>
			<point x="347" y="362"/>
		</contour>
	</outline>
</glyph>
<glyph name="multiply" format="2">
	<unicode hex="00D7"/>
	<advance width="632"/>
	<outline>
		<contour>
			<point x="423" y="183" type="line"/>
			<point x="475" y="226" type="line"/>
			<point x="260" y="530" type="line"/>
			<point x="208" y="487" type="line"/>
		</contour>
		<contour>
			<point x="189" y="179" type="line"/>
			<point x="533" y="484" type="line"/>
			<point x="494" y="532" type="line"/>
			<point x="151" y="228" type="line"/>
		</contour>
	</outline>
	<guideline x="97" y="0" angle="102"/>
	<guideline x="265" y="0" angle="102"/>
	<guideline x="433" y="0" angle="102"/>
</glyph>
<glyph name="oslash" format="2">
	<unicode hex="00F8"/>
	<advance width="595"/>
	<outline>
		<contour>
			<point x="31" y="-30" type="line"/>
			<point x="601" y="474" type="line"/>
			<point x="565" y="520" type="line"/>
			<point x="-5" y="17" type="line"/>
		</contour>
		<contour>
			<point x="51" y="196" type="curve" smooth="yes"/>
			<point x="51" y="69"/>
			<point x="138" y="-16"/>
			<point x="269" y="-16" type="curve" smooth="yes"/>
			<point x="423" y="-16"/>
			<point x="548" y="123"/>
			<point x="548" y="296" type="curve" smooth="yes"/>
			<point x="548" y="423"/>
			<point x="461" y="508"/>
			<point x="330" y="508" type="curve" smooth="yes"/>
			<point x="176" y="508"/>
			<point x="51" y="369"/>
		</contour>
		<contour>
			<point x="269" y="51" type="curve" smooth="yes"/>
			<point x="186" y="51"/>
			<point x="132" y="109"/>
			<point x="132" y="196" type="curve" smooth="yes"/>
			<point x="132" y="333"/>
			<point x="219" y="441"/>
			<point x="330" y="441" type="curve" smooth="yes"/>
			<point x="413" y="441"/>
			<point x="467" y="383"/>
			<point x="467" y="296" type="curve" smooth="yes"/>
			<point x="467" y="159"/>
			<point x="380" y="51"/>
		</contour>
	</outline>
	<guideline y="441"/>
</glyph>
<glyph name="dotlessi" format="2">
	<unicode hex="0131"/>
	<advance width="239"/>
	<outline>
		<contour>
			<point x="33" y="0" type="line"/>
			<point x="110" y="0" type="line"/>
			<point x="214" y="492" type="line"/>
			<point x="137" y="492" type="line"/>
		</contour>
	</outline>
	<anchor name="top.LC" x="190" y="544"/>
</glyph>
<glyph name="IJ" format="2">
	<unicode hex="0132"/>
	<advance width="679"/>
	<outline>
		<contour>
			<point x="106" y="313" type="line"/>
			<point x="185" y="313" type="line"/>
			<point x="268" y="715" type="line"/>
			<point x="190" y="715" type="line"/>
		</contour>
		<contour>
			<point x="87" y="220" type="line"/>
			<point x="85" y="207"/>
			<point x="84" y="193"/>
			<point x="84" y="181" type="curve" smooth="yes"/>
			<point x="84" y="59"/>
			<point x="170" y="-16"/>
			<point x="291" y="-16" type="curve" smooth="yes"/>
			<point x="454" y="-16"/>
			<point x="549" y="71"/>
			<point x="590" y="263" type="curve" smooth="yes"/>
			<point x="687" y="715" type="line"/>
			<point x="607" y="715" type="line"/>
			<point x="513" y="272" type="line" smooth="yes"/>
			<point x="482" y="124"/>
			<point x="415" y="56"/>
			<point x="300" y="56" type="curve" smooth="yes"/>
			<point x="214" y="56"/>
			<point x="163" y="102"/>
			<point x="163" y="198" type="curve" smooth="yes"/>
			<point x="163" y="208"/>
			<point x="164" y="219"/>
			<point x="165" y="230" type="curve"/>
		</contour>
	</outline>
	<anchor name="top.UC_1" x="237" y="750"/>
	<anchor name="top.UC_2" x="650" y="750"/>
</glyph>
<glyph name="acutecomb" format="2">
	<unicode hex="0301"/>
	<outline>
		<contour>
			<point x="-67" y="587" type="line"/>
			<point x="1" y="587" type="line"/>
			<point x="167" y="761" type="line"/>
			<point x="69" y="761" type="line"/>
		</contour>
	</outline>
	<anchor name="_top.LC" x="0" y="544"/>
</glyph>
<glyph name="macroncomb" format="2">
	<unicode hex="0304"/>
	<outline>
		<contour>
			<point x="-135" y="622" type="line"/>
			<point x="122" y="622" type="line"/>
			<point x="135" y="683" type="line"/>
			<point x="-122" y="683" type="line"/>
		</contour>
	</outline>
	<anchor name="_top.LC" x="0" y="544"/>
</glyph>
<glyph name="ringcomb" format="2">
	<unicode hex="030A"/>
	<outline>
		<contour>
			<point x="48" y="779" type="curve" smooth="yes"/>
			<point x="-25" y="779"/>
			<point x="-79" y="723"/>
			<point x="-79" y="649" type="curve" smooth="yes"/>
			<point x="-79" y="601"/>
			<point x="-43" y="565"/>
			<point x="5" y="565" type="curve"/>
			<point x="78" y="565"/>
			<point x="132" y="621"/>
			<point x="132" y="695" type="curve" smooth="yes"/>
			<point x="132" y="743"/>
			<point x="96" y="779"/>
		</contour>
		<contour>
			<point x="38" y="729" type="curve" smooth="yes"/>
			<point x="62" y="729"/>
			<point x="78" y="711"/>
			<point x="78" y="684" type="curve" smooth="yes"/>
			<point x="78" y="644"/>
			<point x="51" y="615"/>
			<point x="15" y="615" type="curve"/>
			<point x="-9" y="615"/>
			<point x="-25" y="633"/>
			<point x="-25" y="660" type="curve" smooth="yes"/>
			<point x="-25" y="700"/>
			<point x="2" y="729"/>
		</contour>
	</outline>
	<anchor name="_top.LC" x="0" y="544"/>
</glyph>
<glyph name="commaturnedabovecomb" format="2">
	<unicode hex="0312"/>
	<outline>
		<contour>
			<point x="4" y="656" type="line"/>
			<point x="8" y="683"/>
			<point x="33" y="726"/>
			<point x="64" y="763" type="curve"/>
			<point x="15" y="763" type="line"/>
			<point x="-35" y="708"/>
			<point x="-60" y="663"/>
			<point x="-60" y="627" type="curve" smooth="yes"/>
			<point x="-60" y="601"/>
			<point x="-44" y="583"/>
			<point x="-19" y="583" type="curve" smooth="yes"/>
			<point x="12" y="583"/>
			<point x="33" y="604"/>
			<point x="33" y="635" type="curve" smooth="yes"/>
			<point x="33" y="660"/>
			<point x="16" y="675"/>
			<point x="-8" y="675" type="curve"/>
		</contour>
	</outline>
	<anchor name="_top.LC" x="0" y="544"/>
</glyph>
<glyph name="commaaboverightcomb" format="2">
	<unicode hex="0315"/>
	<outline>
		<contour>
			<point x="-18" y="523" type="line"/>
			<point x="35" y="583"/>
			<point x="69" y="647"/>
			<point x="69" y="687" type="curve" smooth="yes"/>
			<point x="69" y="715"/>
			<point x="53" y="731"/>
			<point x="25" y="731" type="curve" smooth="yes"/>
			<point x="-7" y="731"/>
			<point x="-31" y="707"/>
			<point x="-31" y="673" type="curve" smooth="yes"/>
			<point x="-31" y="650"/>
			<point x="-15" y="629"/>
			<point x="9" y="629" type="curve"/>
			<point x="4" y="645" type="line"/>
			<point x="-2" y="612"/>
			<point x="-30" y="560"/>
			<point x="-63" y="523" type="curve"/>
		</contour>
	</outline>
	<anchor name="_top_right" x="0" y="540"/>
</glyph>
<glyph name="cedillacomb" format="2">
	<unicode hex="0327"/>
	<outline>
		<contour>
			<point x="-133" y="-219" type="line"/>
			<point x="-113" y="-244"/>
			<point x="-87" y="-255"/>
			<point x="-49" y="-255" type="curve" smooth="yes"/>
			<point x="27" y="-255"/>
			<point x="80" y="-205"/>
			<point x="80" y="-133" type="curve" smooth="yes"/>
			<point x="80" y="-87"/>
			<point x="41" y="-56"/>
			<point x="-15" y="-56" type="curve"/>
			<point x="5" y="-74" type="line"/>
			<point x="45" y="10" type="line"/>
			<point x="-5" y="10" type="line"/>
			<point x="-64" y="-113" type="line"/>
			<point x="-55" y="-109"/>
			<point x="-45" y="-108"/>
			<point x="-28" y="-108" type="curve" smooth="yes"/>
			<point x="0" y="-108"/>
			<point x="17" y="-122"/>
			<point x="17" y="-144" type="curve" smooth="yes"/>
			<point x="17" y="-178"/>
			<point x="-7" y="-201"/>
			<point x="-40" y="-201" type="curve" smooth="yes"/>
			<point x="-63" y="-201"/>
			<point x="-80" y="-193"/>
			<point x="-96" y="-175" type="curve"/>
		</contour>
	</outline>
	<anchor name="_bottom.LC" x="0" y="-50"/>
</glyph>
<glyph name="ogonekcomb" format="2">
	<unicode hex="0328"/>
	<outline>
		<contour>
			<point x="44" y="-181" type="line"/>
			<point x="32" y="-183"/>
			<point x="21" y="-184"/>
			<point x="15" y="-184" type="curve" smooth="yes"/>
			<point x="-14" y="-184"/>
			<point x="-33" y="-169"/>
			<point x="-33" y="-141" type="curve" smooth="yes"/>
			<point x="-33" y="-76"/>
			<point x="34" y="-28"/>
			<point x="82" y="0" type="curve"/>
			<point x="42" y="22" type="line"/>
			<point x="-34" y="-23"/>
			<point x="-101" y="-84"/>
			<point x="-101" y="-166" type="curve" smooth="yes"/>
			<point x="-101" y="-218"/>
			<point x="-64" y="-247"/>
			<point x="-9" y="-247" type="curve" smooth="yes"/>
			<point x="4" y="-247"/>
			<point x="17" y="-246"/>
			<point x="30" y="-243" type="curve"/>
		</contour>
	</outline>
	<anchor name="_ogonek.LC" x="0" y="-30"/>
</glyph>
<glyph name="Germandbls" format="2">
	<unicode hex="1E9E"/>
	<advance width="734"/>
	<outline>
		<contour>
			<point x="40" y="0" type="line"/>
			<point x="120" y="0" type="line"/>
			<point x="209" y="417" type="line" smooth="yes"/>
			<point x="240" y="563"/>
			<point x="329" y="645"/>
			<point x="457" y="645" type="curve" smooth="yes"/>
			<point x="686" y="645" type="line"/>
			<point x="676" y="679" type="line"/>
			<point x="360" y="371" type="line"/>
			<point x="400" y="329" type="line"/>
			<point x="433" y="352"/>
			<point x="462" y="362"/>
			<point x="497" y="362" type="curve" smooth="yes"/>
			<point x="575" y="362"/>
			<point x="621" y="320"/>
			<point x="621" y="247" type="curve" smooth="yes"/>
			<point x="621" y="131"/>
			<point x="541" y="54"/>
			<point x="417" y="54" type="curve" smooth="yes"/>
			<point x="358" y="54"/>
			<point x="311" y="77"/>
			<point x="275" y="126" type="curve"/>
			<point x="209" y="71" type="line"/>
			<point x="254" y="15"/>
			<point x="326" y="-16"/>
			<point x="412" y="-16" type="curve" smooth="yes"/>
			<point x="582" y="-16"/>
			<point x="701" y="96"/>
			<point x="701" y="253" type="curve" smooth="yes"/>
			<point x="701" y="353"/>
			<point x="632" y="422"/>
			<point x="534" y="422" type="curve" smooth="yes"/>
			<point x="519" y="422"/>
			<point x="505" y="421"/>
			<point x="485" y="417" type="curve"/>
			<point x="493" y="409" type="line"/>
			<point x="735" y="646" type="line"/>
			<point x="749" y="715" type="line"/>
			<point x="472" y="715" type="line" smooth="yes"/>
			<point x="294" y="715"/>
			<point x="170" y="607"/>
			<point x="129" y="417" type="curve" smooth="yes"/>
		</contour>
	</outline>
	<guideline y="362"/>
</glyph>
<glyph name="endash" format="2">
	<unicode hex="2013"/>
	<advance width="500"/>
	<outline>
		<contour>
			<point x="0" y="235" type="line"/>
			<point x="500" y="235" type="line"/>
			<point x="515" y="305" type="line"/>
			<point x="14" y="305" type="line"/>
		</contour>
	</outline>
</glyph>
<glyph name="emdash" format="2">
	<unicode hex="2014"/>
	<advance width="1000"/>
	<outline>
		<contour>
			<point x="0" y="235" type="line"/>
			<point x="1000" y="235" type="line"/>
			<point x="1015" y="305" type="line"/>
			<point x="14" y="305" type="line"/>
		</contour>
	</outline>
</glyph>
<glyph name="guilsinglleft" format="2">
	<unicode hex="2039"/>
	<advance width="289"/>
	<outline>
		<contour>
			<point x="119" y="34" type="line"/>
			<point x="202" y="34" type="line"/>
			<point x="113" y="246" type="line"/>
			<point x="293" y="458" type="line"/>
			<point x="210" y="458" type="line"/>
			<point x="30" y="246" type="line"/>
		</contour>
	</outline>
</glyph>
<glyph name="rupeeindian" format="2">
	<unicode hex="20B9"/>
	<advance width="632"/>
	<outline>
		<contour>
			<point x="106" y="482" type="line"/>
			<point x="607" y="482" type="line"/>
			<point x="634" y="549" type="line"/>
			<point x="120" y="549" type="line"/>
		</contour>
		<contour>
			<point x="141" y="648" type="line"/>
			<point x="368" y="648" type="line" smooth="yes"/>
			<point x="439" y="648"/>
			<point x="487" y="610"/>
			<point x="487" y="553" type="curve" smooth="yes"/>
			<point x="487" y="453"/>
			<point x="411" y="382"/>
			<point x="303" y="382" type="curve" smooth="yes"/>
			<point x="86" y="382" type="line"/>
			<point x="71" y="315" type="line"/>
			<point x="401" y="0" type="line"/>
			<point x="524" y="0" type="line"/>
			<point x="170" y="332" type="line"/>
			<point x="163" y="315" type="line"/>
			<point x="294" y="315" type="line" smooth="yes"/>
			<point x="448" y="315"/>
			<point x="568" y="421"/>
			<point x="568" y="556" type="curve" smooth="yes"/>
			<point x="568" y="601"/>
			<point x="547" y="638"/>
			<point x="508" y="663" type="curve"/>
			<point x="503" y="648" type="line"/>
			<point x="671" y="648" type="line"/>
			<point x="697" y="715" type="line"/>
			<point x="155" y="715" type="line"/>
		</contour>
	</outline>
</glyph>
<glyph name="acutecomb.narrow" format="2">
	<outline>
		<contour>
			<point x="-66" y="587" type="line"/>
			<point x="-3" y="587" type="line"/>
			<point x="143" y="761" type="line"/>
			<point x="55" y="761" type="line"/>
		</contour>
	</outline>
	<anchor name="_top.LC" x="0" y="544"/>
</glyph>
<glyph name="caroncomb.cap" format="2">
	<outline>
		<contour>
			<point x="-23" y="799" type="line"/>
			<point x="43" y="799" type="line"/>
			<point x="196" y="943" type="line"/>
			<point x="120" y="943" type="line"/>
			<point x="-25" y="815" type="line"/>
			<point x="50" y="815" type="line"/>
			<point x="-42" y="943" type="line"/>
			<point x="-116" y="943" type="line"/>
		</contour>
	</outline>
	<anchor name="_top.UC" x="0" y="750"/>
</glyph>
<glyph name="commabelowcomb.cap" format="2">
	<outline>
		<contour>
			<point x="-42" y="-270" type="line"/>
			<point x="6" y="-215"/>
			<point x="32" y="-168"/>
			<point x="32" y="-134" type="curve" smooth="yes"/>
			<point x="32" y="-106"/>
			<point x="16" y="-90"/>
			<point x="-12" y="-90" type="curve" smooth="yes"/>
			<point x="-43" y="-90"/>
			<point x="-65" y="-111"/>
			<point x="-65" y="-142" type="curve" smooth="yes"/>
			<point x="-65" y="-167"/>
			<point x="-48" y="-182"/>
			<point x="-24" y="-182" type="curve"/>
			<point x="-36" y="-163" type="line"/>
			<point x="-39" y="-189"/>
			<point x="-63" y="-232"/>
			<point x="-95" y="-270" type="curve"/>
		</contour>
	</outline>
	<anchor name="_bottom.UC" x="0" y="-50"/>
</glyph>
<glyph name="gravecomb.narrow" format="2">
	<outline>
		<contour>
			<point x="-35" y="587" type="line"/>
			<point x="29" y="587" type="line"/>
			<point x="-20" y="761" type="line"/>
			<point x="-104" y="761" type="line"/>
		</contour>
	</outline>
	<anchor name="_top.LC" x="0" y="544"/>
</glyph>
<glyph name="macroncomb.cap" format="2">
	<outline>
		<contour>
			<point x="-145" y="826" type="line"/>
			<point x="133" y="826" type="line"/>
			<point x="146" y="890" type="line"/>
			<point x="-132" y="890" type="line"/>
		</contour>
	</outline>
	<anchor name="_top.UC" x="0" y="750"/>
</glyph>
<glyph name="macroncomb.narrow" format="2">
	<outline>
		<contour>
			<point x="-122" y="622" type="line"/>
			<point x="110" y="622" type="line"/>
			<point x="123" y="683" type="line"/>
			<point x="-109" y="683" type="line"/>
		</contour>
	</outline>
	<anchor name="_top.LC" x="0" y="544"/>
</glyph>
<glyph name="zero.percent" format="2">
	<advance width="368"/>
	<outline>
		<contour>
			<point x="76" y="137" type="curve" smooth="yes"/>
			<point x="76" y="196"/>
			<point x="121" y="244"/>
			<point x="176" y="244" type="curve" smooth="yes"/>
			<point x="221" y="244"/>
			<point x="252" y="211"/>
			<point x="252" y="163" type="curve" smooth="yes"/>
			<point x="252" y="104"/>
			<point x="207" y="56"/>
			<point x="152" y="56" type="curve" smooth="yes"/>
			<point x="107" y="56"/>
			<point x="76" y="89"/>
		</contour>
		<contour>
			<point x="8" y="132" type="curve" smooth="yes"/>
			<point x="8" y="52"/>
			<point x="66" y="-6"/>
			<point x="148" y="-6" type="curve" smooth="yes"/>
			<point x="241" y="-6"/>
			<point x="320" y="73"/>
			<point x="320" y="168" type="curve" smooth="yes"/>
			<point x="320" y="248"/>
			<point x="262" y="306"/>
			<point x="180" y="306" type="curve" smooth="yes"/>
			<point x="87" y="306"/>
			<point x="8" y="227"/>
		</contour>
	</outline>
	<guideline y="-6"/>
	<guideline y="56"/>
	<guideline y="244"/>
	<guideline y="306"/>
</glyph>
